<svg xmlns="http://www.w3.org/2000/svg" version="1.1" xmlns:xlink="http://www.w3.org/1999/xlink" xmlns:svgjs="http://svgjs.com/svgjs" width="800" height="800" preserveAspectRatio="none" viewBox="0 0 800 800"><g mask="url(&quot;#SvgjsMask1042&quot;)" fill="none"><rect width="800" height="800" x="0" y="0" fill="rgba(3, 20, 245, 1)"></rect><path d="M0,363.805C70.54,373.509,142.071,352.544,204.126,317.627C268.58,281.361,336.049,233.946,356.898,162.99C377.304,93.544,323.136,26.63,310.577,-44.654C298.552,-112.908,334.159,-198.143,284.717,-246.709C234.596,-295.942,148.208,-255.854,79.702,-271.44C17.225,-285.655,-34.943,-345.107,-98.009,-333.786C-161.93,-322.312,-200.584,-259.601,-245.822,-213.006C-293.83,-163.558,-357.519,-120.962,-370.373,-53.252C-383.348,15.096,-350.283,84.133,-313.43,143.139C-279.521,197.431,-223.304,229.175,-170.964,266.025C-116.174,304.599,-66.382,354.673,0,363.805" fill="#0313e9"></path><path d="M800 1052.489C845.517 1043.209 875.678 1003.538 913.255 976.227 948.313 950.7470000000001 989.78 933.804 1013.344 897.431 1038.99 857.844 1058.768 810.43 1050.781 763.943 1042.853 717.797 998.529 689.682 971.129 651.715 940.441 609.192 928.254 548.02 880.052 527.369 831.371 506.513 771.871 520.802 725.569 546.511 682.982 570.157 670.508 623.359 639.505 660.9300000000001 609.511 697.278 553.852 717.005 546.472 763.548 539.0930000000001 810.081 585.732 846.12 603.2 889.876 621.866 936.635 613.779 997.303 652.591 1029.373 691.725 1061.709 750.258 1062.6309999999999 800 1052.489" fill="#081afc"></path></g><defs><mask id="SvgjsMask1042"><rect width="800" height="800" fill="#ffffff"></rect></mask></defs></svg>